#N canvas 3367 7 1106 723 12;
#X obj 80 11 ctlin;
#X obj 64 88 pack 0 0 0;
#X obj 198 11 notein;
#X obj 198 88 pack 0 0 0;
#X obj 126 224 t a b;
#X obj 158 278 list prepend set;
#X obj 158 303 list trim;
#X obj 337 12 bendin;
#X obj 469 130 pack 0 0;
#X obj 469 10 pgmin;
#X obj 487 416 netsend -u -b;
#X floatatom 487 441 5 0 0 0 - - - 0;
#X obj 600 11 loadbang;
#X obj 487 490 oscparse;
#X obj 34 88 bng 20 250 50 0 empty empty empty 0 -10 0 12 #fcfcfc #000000 #000000;
#X obj 126 335 oscformat -f f f f;
#X obj 600 142 route register, f 23;
#X obj 600 251 oscformat osc-midi-register;
#X obj 487 515 list trim;
#X obj 724 661 print from-server;
#X obj 600 225 list;
#X obj 600 36 t b b;
#X obj 721 11 bng 20 250 50 0 empty empty (re)connect 0 -10 0 12 #fcfcfc #000000 #000000;
#X obj 873 436 list;
#X listbox 644 494 20 0 0 0 - - - 0;
#X msg 950 88 disconnected;
#X obj 486 661 midiout;
#X obj 637 335 list prepend midiin;
#X obj 637 360 list trim;
#X obj 506 637 print local-midiout;
#X obj 637 410 print local-midiin;
#X obj 486 584 route midiout msg, f 43;
#X msg 63 117 \$3 \$2 \$1;
#X obj 124 47 + 175;
#X obj 239 47 + 143;
#X text 180 225 raw midi message;
#X obj 87 388 spigot;
#X obj 410 225 tgl 20 0 empty empty log 0 -10 0 12 #fcfcfc #000000 #000000 0 1;
#X obj 724 636 spigot;
#X obj 637 385 spigot;
#X obj 506 612 spigot;
#X msg 600 117 disconnect \, connect 127.0.0.1 4711 \, register;
#X msg 600 199 127.0.0.1 4710;
#X text 713 198 put local-ip and portno here before connecting.;
#X obj 487 465 netreceive -u -b 4710;
#X obj 441 493 bng 20 250 50 0 empty empty empty 0 -10 0 12 #fcfcfc #000000 #000000;
#X obj 87 413 print local-midiin;
#X msg 198 113 \$3 \$1 \$2;
#X msg 158 253 midiin;
#X obj 522 96 + 191;
#X msg 469 155 \$3 \$1 0;
#X obj 336 130 pack 0 0 0;
#X obj 368 68 & 127;
#X obj 310 68 & 16256;
#X obj 310 93 >> 7;
#X obj 336 40 t f f;
#X msg 336 156 \$3 \$2 \$1;
#X connect 0 0 1 0;
#X connect 0 0 14 0;
#X connect 0 1 1 1;
#X connect 0 2 33 0;
#X connect 1 0 32 0;
#X connect 2 0 3 0;
#X connect 2 1 3 1;
#X connect 2 2 34 0;
#X connect 3 0 47 0;
#X connect 4 0 15 0;
#X connect 4 0 36 0;
#X connect 4 1 48 0;
#X connect 5 0 6 0;
#X connect 6 0 15 0;
#X connect 7 0 55 0;
#X connect 7 1 51 2;
#X connect 8 0 50 0;
#X connect 9 0 8 0;
#X connect 9 1 49 0;
#X connect 10 0 11 0;
#X connect 12 0 21 0;
#X connect 13 0 18 0;
#X connect 15 0 10 0;
#X connect 16 0 42 0;
#X connect 16 1 10 0;
#X connect 17 0 10 0;
#X connect 18 0 31 0;
#X connect 20 0 17 0;
#X connect 21 0 41 0;
#X connect 21 1 25 0;
#X connect 22 0 21 0;
#X connect 23 0 24 0;
#X connect 25 0 23 0;
#X connect 27 0 28 0;
#X connect 28 0 10 0;
#X connect 28 0 39 0;
#X connect 31 0 26 0;
#X connect 31 0 40 0;
#X connect 31 1 23 0;
#X connect 31 1 38 0;
#X connect 32 0 4 0;
#X connect 33 0 1 2;
#X connect 34 0 3 2;
#X connect 36 0 46 0;
#X connect 37 0 36 1;
#X connect 37 0 39 1;
#X connect 37 0 38 1;
#X connect 37 0 40 1;
#X connect 38 0 19 0;
#X connect 39 0 30 0;
#X connect 40 0 29 0;
#X connect 41 0 16 0;
#X connect 42 0 20 0;
#X connect 44 0 13 0;
#X connect 44 0 45 0;
#X connect 47 0 4 0;
#X connect 48 0 5 0;
#X connect 49 0 8 1;
#X connect 50 0 4 0;
#X connect 51 0 56 0;
#X connect 52 0 51 1;
#X connect 53 0 54 0;
#X connect 54 0 51 0;
#X connect 55 0 53 0;
#X connect 55 1 52 0;
#X connect 56 0 4 0;
