#N canvas 142 15 535 369 12;
#X obj -2 -1 cnv 20 600 800 empty empty midi<->osc_bridge 200 28 0 18 #7c7c7c #000000 0;
#N canvas 425 2 1679 957 works 0;
#X obj 80 71 ctlin;
#X obj 64 148 pack 0 0 0;
#X obj 198 71 notein;
#X obj 198 148 pack 0 0 0;
#X obj 126 284 t a b;
#X obj 158 338 list prepend set;
#X obj 158 363 list trim;
#X obj 337 72 bendin;
#X obj 469 190 pack 0 0;
#X obj 469 70 pgmin;
#X obj 492 451 netsend -u -b;
#X floatatom 492 476 5 0 0 0 - - - 0;
#X obj 486 632 oscparse;
#X obj 34 148 bng 20 250 50 0 empty empty empty 0 -10 0 12 #fcfcfc #000000 #000000;
#X obj 126 395 oscformat -f f f f;
#X obj 759 379 oscformat osc-midi-register;
#X obj 486 657 list trim;
#X obj 724 761 print from-server;
#X obj 600 96 t b b;
#X obj 721 71 bng 20 250 50 0 empty \$0-connect (re)connect 0 -10 0 12 #fcfcfc #000000 #000000;
#X obj 873 496 list;
#X listbox 644 554 20 0 0 0 - - - 0;
#X msg 950 148 disconnected;
#X obj 486 761 midiout;
#X obj 506 737 print local-midiout;
#X obj 486 684 route midiout msg, f 43;
#X msg 63 177 \$3 \$2 \$1;
#X obj 124 107 + 175;
#X obj 239 107 + 143;
#X text 180 285 raw midi message;
#X obj 87 448 spigot;
#X obj 410 285 tgl 20 0 empty \$0-log log 0 -10 0 12 #fcfcfc #000000 #000000 0 1;
#X obj 724 736 spigot;
#X obj 506 712 spigot;
#X obj 440 635 bng 20 250 50 0 empty empty empty 0 -10 0 12 #fcfcfc #000000 #000000;
#X obj 87 473 print local-midiin;
#X msg 198 173 \$3 \$1 \$2;
#X msg 158 313 midiin;
#X obj 522 156 + 191;
#X msg 469 215 \$3 \$1 0;
#X obj 336 190 pack 0 0 0;
#X obj 368 128 & 127;
#X obj 310 128 & 16256;
#X obj 310 153 >> 7;
#X obj 336 100 t f f;
#X msg 336 216 \$3 \$2 \$1;
#X obj 937 85 bng 20 250 50 0 empty \$0-disconnect disconnect 0 -10 0 12 #fcfcfc #000000 #000000;
#X msg 830 102 disconnect;
#N canvas 12 929 1152 910 handle-config 0;
#X obj 16 73 text define -k \$0-config;
#A set local-ip 127.0.0.1 \; local-port 4710 \; remote-ip 127.0.0.1 \; remote-port 4711 \;;
#X obj 16 219 text search \$0-config;
#X obj 16 164 symbol;
#X obj 16 251 sel -1;
#X obj 209 287 symbol;
#X obj 209 336 print error;
#X obj 16 189 t a a;
#X msg 209 312 \$1 not defined in config \, please edit config to include \$1!;
#X msg 16 139 local-ip \, local-port \, remote-ip \, remote-port;
#X obj 55 312 text get \$0-config;
#X obj 55 338 list trim;
#X obj 55 468 route local-ip local-port remote-ip remote-port;
#X msg 16 43 click;
#X obj 16 18 r \$0-edit-config;
#X obj 55 524 symbol;
#X obj 218 506 symbol;
#X obj 301 520 makefilename %d;
#X obj 96 563 makefilename %d;
#X obj 55 363 print;
#X obj 483 709 s \$0-remote-port-sym;
#X obj 185 708 s \$0-local-port-sym;
#X msg 91 657 set \$1;
#X obj 55 709 s \$0-local-ip-sym;
#X obj 331 710 s \$0-remote-ip-sym;
#X msg 195 650 set \$1;
#X msg 333 649 set \$1;
#X msg 483 655 set \$1;
#X obj 409 581 s \$0-local-ip;
#X obj 685 582 s \$0-remote-ip;
#X obj 523 583 s \$0-local-port;
#X obj 791 583 s \$0-remote-port;
#X obj 16 108 r \$0-reload-config;
#X floatatom 505 489 5 0 0 0 - - - 0;
#X floatatom 505 456 5 0 0 0 - - - 0;
#X symbolatom 428 456 10 0 0 0 - - - 0;
#X symbolatom 426 488 10 0 0 0 - - - 0;
#X connect 1 0 3 0;
#X connect 2 0 6 0;
#X connect 3 0 4 0;
#X connect 3 1 9 0;
#X connect 4 0 7 0;
#X connect 6 0 1 0;
#X connect 6 1 4 1;
#X connect 7 0 5 0;
#X connect 8 0 2 0;
#X connect 9 0 10 0;
#X connect 10 0 18 0;
#X connect 10 0 11 0;
#X connect 11 0 14 0;
#X connect 11 0 27 0;
#X connect 11 1 17 0;
#X connect 11 1 29 0;
#X connect 11 1 33 0;
#X connect 11 2 15 0;
#X connect 11 2 28 0;
#X connect 11 3 16 0;
#X connect 11 3 30 0;
#X connect 11 3 32 0;
#X connect 12 0 0 0;
#X connect 13 0 12 0;
#X connect 14 0 21 0;
#X connect 14 0 34 0;
#X connect 15 0 25 0;
#X connect 15 0 35 0;
#X connect 16 0 26 0;
#X connect 17 0 24 0;
#X connect 21 0 22 0;
#X connect 24 0 20 0;
#X connect 25 0 23 0;
#X connect 26 0 19 0;
#X connect 31 0 8 0;
#X restore 45 18 pd handle-config;
#X obj 538 357 list;
#X obj 513 267 bng 20 250 50 0 empty empty empty 0 -10 0 12 #fcfcfc #000000 #000000;
#X obj 563 327 pack s 0;
#X obj 563 297 symbol;
#X obj 873 521 s \$0-status;
#X obj 563 271 r \$0-remote-ip;
#X obj 670 269 r \$0-remote-port;
#X obj 501 498 r \$0-local-port;
#X msg 486 541 listen \$1;
#X obj 277 568 s \$0-activity;
#X obj 276 539 bng 20 250 50 0 empty empty empty 0 -10 0 12 #fcfcfc #000000 #000000;
#X obj 600 22 loadbang;
#X msg 538 382 connect \$1 \$2;
#X obj 759 327 list;
#X obj 784 297 pack s 0;
#X obj 784 241 symbol;
#X obj 784 215 r \$0-local-ip;
#X obj 889 212 r \$0-local-port;
#X obj 600 202 route connect register;
#X msg 600 177 disconnect \, connect \, register;
#X obj 626 133 s \$0-reload-config;
#X obj 658 440 print;
#X obj 670 294 t b f;
#X obj 908 243 t b f;
#X floatatom 638 504 5 0 0 0 - - - 0;
#X obj 638 527 bng 20 250 50 0 empty empty empty 0 -10 0 12 #fcfcfc #000000 #000000;
#X obj 702 331 bng 20 250 50 0 empty empty empty 0 -10 0 12 #fcfcfc #000000 #000000;
#X obj 486 607 netreceive -u -b 4710;
#X obj 1088 554 route connected disconnected;
#X obj 1127 698 s \$0-cnv-connection-status;
#X msg 1126 667 color \$1 \$1 0;
#X floatatom 1141 600 5 0 0 0 - - - 0;
#X msg 1215 599 13;
#X msg 1082 602 36;
#X connect 0 0 1 0;
#X connect 0 0 13 0;
#X connect 0 0 59 0;
#X connect 0 1 1 1;
#X connect 0 2 27 0;
#X connect 1 0 26 0;
#X connect 2 0 3 0;
#X connect 2 0 59 0;
#X connect 2 1 3 1;
#X connect 2 2 28 0;
#X connect 3 0 36 0;
#X connect 4 0 14 0;
#X connect 4 0 30 0;
#X connect 4 1 37 0;
#X connect 5 0 6 0;
#X connect 6 0 14 0;
#X connect 7 0 44 0;
#X connect 7 0 59 0;
#X connect 7 1 40 2;
#X connect 8 0 39 0;
#X connect 9 0 8 0;
#X connect 9 0 59 0;
#X connect 9 1 38 0;
#X connect 10 0 11 0;
#X connect 12 0 16 0;
#X connect 14 0 10 0;
#X connect 15 0 10 0;
#X connect 16 0 25 0;
#X connect 18 0 68 0;
#X connect 18 1 22 0;
#X connect 18 1 69 0;
#X connect 19 0 18 0;
#X connect 20 0 21 0;
#X connect 20 0 53 0;
#X connect 22 0 20 0;
#X connect 22 0 77 0;
#X connect 25 0 23 0;
#X connect 25 0 33 0;
#X connect 25 1 20 0;
#X connect 25 1 32 0;
#X connect 25 1 77 0;
#X connect 26 0 4 0;
#X connect 27 0 1 2;
#X connect 28 0 3 2;
#X connect 30 0 35 0;
#X connect 31 0 30 1;
#X connect 31 0 32 1;
#X connect 31 0 33 1;
#X connect 32 0 17 0;
#X connect 33 0 24 0;
#X connect 36 0 4 0;
#X connect 37 0 5 0;
#X connect 38 0 8 1;
#X connect 39 0 4 0;
#X connect 40 0 45 0;
#X connect 41 0 40 1;
#X connect 42 0 43 0;
#X connect 43 0 40 0;
#X connect 44 0 42 0;
#X connect 44 1 41 0;
#X connect 45 0 4 0;
#X connect 46 0 47 0;
#X connect 46 0 22 0;
#X connect 47 0 67 0;
#X connect 49 0 61 0;
#X connect 50 0 49 0;
#X connect 51 0 49 1;
#X connect 51 0 70 0;
#X connect 52 0 51 0;
#X connect 54 0 52 0;
#X connect 55 0 71 0;
#X connect 56 0 57 0;
#X connect 56 0 73 0;
#X connect 59 0 58 0;
#X connect 60 0 18 0;
#X connect 61 0 10 0;
#X connect 62 0 15 0;
#X connect 63 0 62 1;
#X connect 63 0 70 0;
#X connect 64 0 63 0;
#X connect 65 0 64 0;
#X connect 66 0 72 0;
#X connect 67 0 50 0;
#X connect 67 1 62 0;
#X connect 67 2 10 0;
#X connect 68 0 67 0;
#X connect 71 0 51 0;
#X connect 71 1 51 1;
#X connect 72 0 64 0;
#X connect 72 1 63 1;
#X connect 73 0 74 0;
#X connect 75 0 62 0;
#X connect 76 0 34 0;
#X connect 76 0 12 0;
#X connect 77 0 82 0;
#X connect 77 1 81 0;
#X connect 79 0 78 0;
#X connect 80 0 79 0;
#X connect 81 0 79 0;
#X connect 82 0 79 0;
#X restore 19 18 pd works;
#X obj 18 109 bng 20 250 50 0 \$0-connect \$0-dummy (re)connect 30 10 0 12 #fcfcfc #000000 #000000;
#X obj 18 142 bng 20 250 50 0 \$0-disconnect \$0-dummy disconnect 30 10 0 12 #fcfcfc #000000 #000000;
#X obj 18 81 bng 20 250 50 0 \$0-edit-config \$0-dummy edit-config 30 10 0 12 #dfdfdf #000000 #000000;
#X obj 18 51 tgl 20 0 \$0-log \$0-log log 30 10 0 12 #dfdfdf #000000 #000000 0 1;
#X obj 18 173 cnv 10 133 18 empty \$0-cnv-connection-status empty 20 12 0 12 #d8fcd8 #fcfcfc 0;
#X obj 18 223 cnv 10 106 18 empty empty empty 20 12 0 12 #e0e0e0 #404040 0;
#X obj 213 226 cnv 10 30 18 empty empty empty 20 12 0 12 #e0e0e0 #404040 0;
#X obj 18 254 cnv 10 106 18 empty empty empty 20 12 0 12 #e0e0e0 #404040 0;
#X obj 213 255 cnv 10 30 18 empty empty empty 20 12 0 12 #e0e0e0 #404040 0;
#X symbolatom 18 223 15 0 0 1 local-ip \$0-local-ip-sym \$0-dummy1 0;
#X symbolatom 213 226 4 0 0 1 local-port \$0-local-port-sym \$0-dummy2 0;
#X symbolatom 18 253 15 0 0 1 remote-ip \$0-remote-ip-sym \$0-dummy3 0;
#X symbolatom 213 255 4 0 0 1 remote-port \$0-remote-port-sym \$0-dummy4 0;
#X listbox 18 173 20 0 0 1 status \$0-status \$0-dummy14 0;
